<svg width="116" height="116" viewBox="0 0 116 116" fill="none" xmlns="http://www.w3.org/2000/svg">
<circle cx="58" cy="58" r="58" fill="white"/>
<g clip-path="url(#clip0_449_4971)">
<rect width="72.5" height="72.5" transform="translate(21.75 21.75)" fill="white"/>
<path d="M82.166 36.8542H72.59L68.8441 32.776C67.7264 31.5375 66.0952 30.8125 64.4035 30.8125H51.5952C49.9035 30.8125 48.2723 31.5375 47.1243 32.776L43.4087 36.8542H33.8327C30.5098 36.8542 27.791 39.5729 27.791 42.8958V79.1458C27.791 82.4688 30.5098 85.1875 33.8327 85.1875H82.166C85.4889 85.1875 88.2077 82.4688 88.2077 79.1458V42.8958C88.2077 39.5729 85.4889 36.8542 82.166 36.8542ZM57.9994 76.125C49.6618 76.125 42.8952 69.3583 42.8952 61.0208C42.8952 52.6833 49.6618 45.9167 57.9994 45.9167C66.3368 45.9167 73.1035 52.6833 73.1035 61.0208C73.1035 69.3583 66.3368 76.125 57.9994 76.125ZM57.9994 48.9375L54.2233 57.2448L45.916 61.0208L54.2233 64.7969L57.9994 73.1042L61.7754 64.7969L70.0827 61.0208L61.7754 57.2448L57.9994 48.9375Z" fill="#157D18"/>
</g>
<defs>
<clipPath id="clip0_449_4971">
<rect width="72.5" height="72.5" fill="white" transform="translate(21.75 21.75)"/>
</clipPath>
</defs>
</svg>
