<svg width="112" height="112" viewBox="0 0 112 112" fill="none" xmlns="http://www.w3.org/2000/svg">
<circle cx="56" cy="56" r="56" fill="#E41B1B"/>
<path d="M80.1864 37.9467C75.8931 37.52 71.5998 37.2 67.2798 36.96V36.9333L66.6931 33.4667C66.2931 31.0133 65.7064 27.3333 59.4664 27.3333H52.4798C46.2664 27.3333 45.6798 30.8533 45.2531 33.44L44.6931 36.8533C42.2131 37.0133 39.7331 37.1733 37.2531 37.4133L31.8131 37.9467C30.6931 38.0533 29.8931 39.04 29.9998 40.1333C30.1064 41.2267 31.0664 42.0267 32.1864 41.92L37.6264 41.3867C51.5998 40 65.6798 40.5333 79.8131 41.9467C79.8931 41.9467 79.9464 41.9467 80.0264 41.9467C81.0398 41.9467 81.9198 41.1733 82.0264 40.1333C82.1064 39.04 81.3064 38.0533 80.1864 37.9467Z" fill="white"/>
<path d="M75.2806 45.7067C74.6406 45.04 73.7606 44.6667 72.854 44.6667H39.1473C38.2406 44.6667 37.334 45.04 36.7206 45.7067C36.1073 46.3733 35.7606 47.28 35.814 48.2133L37.4673 75.5733C37.7606 79.6267 38.134 84.6933 47.4406 84.6933H64.5606C73.8673 84.6933 74.2406 79.6533 74.534 75.5733L76.1873 48.24C76.2406 47.28 75.894 46.3733 75.2806 45.7067ZM60.4273 71.3333H51.5473C50.454 71.3333 49.5473 70.4267 49.5473 69.3333C49.5473 68.24 50.454 67.3333 51.5473 67.3333H60.4273C61.5206 67.3333 62.4273 68.24 62.4273 69.3333C62.4273 70.4267 61.5206 71.3333 60.4273 71.3333ZM62.6673 60.6667H49.334C48.2406 60.6667 47.334 59.76 47.334 58.6667C47.334 57.5733 48.2406 56.6667 49.334 56.6667H62.6673C63.7606 56.6667 64.6673 57.5733 64.6673 58.6667C64.6673 59.76 63.7606 60.6667 62.6673 60.6667Z" fill="white"/>
</svg>
