<svg width="436" height="112" viewBox="0 0 436 112" fill="none" xmlns="http://www.w3.org/2000/svg">
<path d="M435.374 108.413L435.455 96.8659L425.414 102.569L435.374 108.413ZM2.37795 111.292C2.83214 110.04 3.30509 108.799 3.7965 107.569L1.93919 106.827C1.43987 108.077 0.959321 109.338 0.497839 110.61L2.37795 111.292ZM6.96395 100.318C8.10011 97.9269 9.30869 95.5802 10.5872 93.2774L8.83863 92.3066C7.53984 94.6459 6.31195 97.0301 5.15756 99.4592L6.96395 100.318ZM14.643 86.4807C16.0648 84.2574 17.5546 82.0784 19.1099 79.9435L17.4934 78.7658C15.9146 80.9329 14.402 83.1454 12.9581 85.4032L14.643 86.4807ZM23.9651 73.6772C25.6375 71.6443 27.372 69.6549 29.1663 67.7091L27.696 66.3533C25.8766 68.3263 24.1173 70.344 22.4206 72.4065L23.9651 73.6772ZM34.6997 62.0277C36.5863 60.192 38.5287 58.3988 40.5246 56.6481L39.2057 55.1446C37.1845 56.9176 35.2167 58.7341 33.305 60.5942L34.6997 62.0277ZM46.6124 51.5692C48.6769 49.9304 50.7907 48.3328 52.9516 46.7762L51.7827 45.1534C49.597 46.7277 47.4583 48.3442 45.369 50.0027L46.6124 51.5692ZM59.4821 42.2897C61.6907 40.8425 63.9424 39.4349 66.2352 38.0669L65.2104 36.3494C62.8941 37.7315 60.6185 39.154 58.3859 40.6169L59.4821 42.2897ZM73.1147 34.1467C75.4379 32.8827 77.7984 31.6567 80.1941 30.4689L79.3057 28.677C76.8877 29.8759 74.5047 31.1135 72.1588 32.3899L73.1147 34.1467ZM87.3481 27.0813C89.761 25.9907 92.2058 24.9367 94.6806 23.9193L93.9201 22.0695C91.4245 23.0955 88.9586 24.1586 86.5244 25.2588L87.3481 27.0813ZM102.051 21.0297C104.533 20.1026 107.042 19.2106 109.576 18.3538L108.936 16.4591C106.382 17.3226 103.853 18.2216 101.351 19.1562L102.051 21.0297ZM117.118 15.9301C119.653 15.1568 122.21 14.4173 124.788 13.7118L124.261 11.7827C121.664 12.4933 119.088 13.2381 116.534 14.0172L117.118 15.9301ZM132.465 11.7262C135.039 11.0979 137.632 10.5025 140.242 9.93996L139.821 7.98487C137.194 8.55119 134.583 9.15062 131.99 9.78317L132.465 11.7262ZM148.024 8.36905C150.627 7.87843 153.246 7.41971 155.878 6.99289L155.558 5.01869C152.909 5.44819 150.274 5.90984 147.653 6.40363L148.024 8.36905ZM163.739 5.81807C166.363 5.45881 169 5.1307 171.645 4.83373L171.422 2.84621C168.761 3.14497 166.108 3.47508 163.468 3.83655L163.739 5.81807ZM179.563 4.04054C182.202 3.8077 184.849 3.60542 187.502 3.4337L187.373 1.43788C184.704 1.6106 182.041 1.81406 179.387 2.04828L179.563 4.04054ZM195.455 3.01135C198.102 2.90129 200.754 2.82137 203.41 2.77159L203.373 0.771937C200.702 0.822007 198.034 0.902384 195.372 1.01308L195.455 3.01135ZM211.377 2.71258C214.028 2.72293 216.681 2.76316 219.335 2.83325L219.388 0.833949C216.719 0.763457 214.051 0.723005 211.385 0.712598L211.377 2.71258ZM227.295 3.13304C229.945 3.26266 232.594 3.42204 235.241 3.6112L235.384 1.61628C232.722 1.42606 230.058 1.26578 227.393 1.13543L227.295 3.13304ZM243.176 4.26796C245.82 4.51689 248.461 4.79565 251.097 5.10423L251.33 3.11779C248.678 2.80746 246.022 2.52711 243.363 2.27676L243.176 4.26796ZM258.989 6.11939C261.622 6.4887 264.248 6.88799 266.867 7.31726L267.19 5.34361C264.556 4.91183 261.915 4.51022 259.267 4.13878L258.989 6.11939ZM274.702 8.69585C277.316 9.18741 279.92 9.70921 282.514 10.2613L282.93 8.30507C280.321 7.7497 277.701 7.22478 275.072 6.73031L274.702 8.69585ZM290.276 12.0116C292.863 12.6282 295.437 13.2754 297.998 13.9531L298.51 12.0197C295.933 11.3377 293.342 10.6865 290.739 10.0661L290.276 12.0116ZM305.666 16.0869C308.218 16.8321 310.754 17.6084 313.273 18.4158L313.884 16.5113C311.348 15.6985 308.795 14.9171 306.227 14.1671L305.666 16.0869ZM320.823 20.9474C323.331 21.8259 325.819 22.7361 328.287 23.678L329 21.8095C326.515 20.861 324.009 19.9444 321.485 19.0599L320.823 20.9474ZM335.69 26.6245C338.142 27.6419 340.572 28.6917 342.978 29.7738L343.798 27.9498C341.375 26.8595 338.927 25.802 336.456 24.7771L335.69 26.6245ZM350.196 33.1541C352.581 34.3167 354.94 35.5125 357.271 36.7415L358.204 34.9724C355.854 33.7334 353.476 32.528 351.072 31.3562L350.196 33.1541ZM364.259 40.5754C366.563 41.8901 368.836 43.2389 371.076 44.6218L372.127 42.9199C369.867 41.5247 367.574 40.1642 365.25 38.8383L364.259 40.5754ZM377.781 48.9283C379.986 50.4019 382.155 51.9105 384.287 53.4542L385.46 51.8343C383.307 50.2757 381.117 48.7527 378.892 47.2655L377.781 48.9283ZM390.644 58.2495C392.729 59.8876 394.773 61.5618 396.775 63.2719L398.074 61.7513C396.051 60.0231 393.986 58.3316 391.88 56.677L390.644 58.2495ZM402.712 68.5661C404.651 70.3719 406.545 72.2147 408.392 74.0943L409.819 72.6926C407.951 70.7915 406.035 68.9281 404.075 67.1024L402.712 68.5661ZM413.828 79.888C415.594 81.8603 417.31 83.8702 418.974 85.9177L420.526 84.6564C418.842 82.5838 417.105 80.5496 415.318 78.5538L413.828 79.888ZM423.826 92.1978C425.389 94.3293 426.898 96.4986 428.351 98.7058L430.021 97.6064C428.55 95.3705 427.022 93.1733 425.438 91.0149L423.826 92.1978Z" fill="#157D18"/>
</svg>
