<svg width="426" height="112" viewBox="0 0 426 112" fill="none" xmlns="http://www.w3.org/2000/svg">
<path d="M425.155 1.99585L424.547 13.5268L414.865 7.23477L425.155 1.99585ZM2.02146 0.784082C2.47967 2.05856 2.95556 3.3219 3.44886 4.5741L1.58804 5.30715C1.08739 4.03627 0.604409 2.75412 0.139399 1.46073L2.02146 0.784082ZM6.61518 11.9536C7.75088 14.3951 8.9554 16.7911 10.2264 19.1416L8.46713 20.0929C7.17711 17.7072 5.95452 15.2753 4.80178 12.7972L6.61518 11.9536ZM14.2527 26.0828C15.6694 28.3655 17.1516 30.6019 18.6969 32.7918L17.0628 33.9449C15.495 31.7231 13.991 29.4539 12.5534 27.1375L14.2527 26.0828ZM23.5191 39.2216C25.1874 41.3177 26.9163 43.3674 28.7035 45.3708L27.2111 46.7022C25.3993 44.6712 23.6462 42.5929 21.9543 40.4671L23.5191 39.2216ZM34.2179 51.2219C36.1069 53.1207 38.0511 54.9738 40.0481 56.7809L38.7062 58.2639C36.6836 56.4336 34.7141 54.5565 32.8 52.6324L34.2179 51.2219ZM46.1409 62.0203C48.2165 63.7169 50.3415 65.3687 52.5136 66.9755L51.3242 68.5834C49.1266 66.9577 46.9762 65.2861 44.8752 63.5688L46.1409 62.0203ZM59.0795 71.6014C61.3031 73.0932 63.5701 74.5416 65.8781 75.9466L64.8382 77.655C62.5055 76.235 60.2137 74.7707 57.9652 73.2622L59.0795 71.6014ZM72.8404 79.985C75.1819 81.2786 77.5609 82.5304 79.9753 83.7402L79.0793 85.5283C76.6414 84.3067 74.2386 83.0424 71.8732 81.7355L72.8404 79.985ZM87.2546 87.2128C89.6889 88.3175 92.1553 89.3818 94.6519 90.4058L93.893 92.2562C91.3741 91.2231 88.8852 90.1491 86.4281 89.034L87.2546 87.2128ZM102.18 93.3375C104.687 94.2635 107.221 95.1504 109.78 95.9983L109.151 97.8968C106.571 97.0419 104.015 96.1475 101.487 95.2137L102.18 93.3375ZM117.499 98.415C120.062 99.1719 122.648 99.891 125.254 100.572L124.748 102.507C122.122 101.821 119.516 101.096 116.932 100.333L117.499 98.415ZM133.115 102.499C135.721 103.095 138.346 103.655 140.988 104.179L140.599 106.141C137.939 105.613 135.294 105.049 132.669 104.448L133.115 102.499ZM148.951 105.637C151.59 106.081 154.243 106.489 156.909 106.861L156.633 108.842C153.948 108.467 151.276 108.056 148.619 107.609L148.951 105.637ZM164.941 107.871C167.603 108.168 170.276 108.431 172.958 108.658L172.789 110.651C170.089 110.422 167.398 110.158 164.719 109.858L164.941 107.871ZM181.03 109.235C183.706 109.39 186.391 109.512 189.082 109.599L189.018 111.597C186.309 111.51 183.607 111.388 180.914 111.231L181.03 109.235ZM197.169 109.755C199.853 109.773 202.542 109.757 205.234 109.706L205.272 111.706C202.563 111.757 199.857 111.773 197.156 111.755L197.169 109.755ZM213.316 109.453C216 109.335 218.686 109.183 221.372 108.997L221.51 110.992C218.807 111.179 216.104 111.332 213.403 111.451L213.316 109.453ZM229.427 108.339C232.105 108.087 234.781 107.801 237.455 107.482L237.692 109.467C235.002 109.789 232.309 110.077 229.615 110.331L229.427 108.339ZM245.464 106.423C248.127 106.036 250.787 105.617 253.441 105.163L253.778 107.135C251.107 107.591 248.431 108.013 245.751 108.402L245.464 106.423ZM261.384 103.704C264.026 103.183 266.662 102.629 269.289 102.042L269.725 103.994C267.081 104.585 264.429 105.142 261.77 105.666L261.384 103.704ZM277.145 100.178C279.758 99.5226 282.361 98.8333 284.953 98.1102L285.491 100.037C282.882 100.764 280.262 101.458 277.632 102.118L277.145 100.178ZM292.7 95.8383C295.275 95.0456 297.838 94.219 300.387 93.3584L301.026 95.2533C298.461 96.1197 295.881 96.9518 293.288 97.7498L292.7 95.8383ZM307.999 90.6712C310.527 89.7392 313.039 88.7729 315.535 87.7724L316.279 89.6288C313.766 90.6363 311.236 91.6093 308.69 92.5478L307.999 90.6712ZM322.983 84.6618C325.454 83.5876 327.906 82.4789 330.338 81.3357L331.189 83.1457C328.739 84.2973 326.269 85.4141 323.78 86.496L322.983 84.6618ZM337.59 77.7927C339.992 76.5736 342.373 75.3196 344.729 74.0306L345.689 75.7853C343.314 77.0843 340.916 78.3479 338.495 79.5762L337.59 77.7927ZM351.747 70.0467C354.068 68.68 356.363 67.2779 358.631 65.8405L359.701 67.5298C357.415 68.979 355.101 70.3924 352.762 71.77L351.747 70.0467ZM365.373 61.4084C367.597 59.8921 369.792 58.3399 371.957 56.752L373.14 58.3647C370.956 59.9664 368.742 61.5318 366.499 63.0609L365.373 61.4084ZM378.376 51.8675C380.488 50.2006 382.567 48.4976 384.613 46.7584L385.908 48.2822C383.844 50.0372 381.746 51.7556 379.615 53.4373L378.376 51.8675ZM390.658 41.4219C392.64 39.6055 394.586 37.7527 396.495 35.8636L397.902 37.2851C395.974 39.1924 394.01 41.0628 392.01 42.8963L390.658 41.4219ZM402.113 30.0822C403.946 28.1198 405.741 26.1211 407.495 24.0859L409.01 25.3917C407.238 27.4473 405.426 29.4659 403.574 31.4475L402.113 30.0822ZM412.632 17.8752C414.299 15.7737 415.924 13.636 417.506 11.462L419.123 12.6387C417.525 14.8353 415.883 16.995 414.199 19.118L412.632 17.8752Z" fill="#157D18"/>
</svg>
