<svg width="56" height="66" viewBox="0 0 56 66" fill="none" xmlns="http://www.w3.org/2000/svg">
<path d="M14.7261 26.2899H25.7935C26.4645 26.29 27.1251 26.1245 27.7167 25.808C28.3083 25.4916 28.8127 25.034 29.1851 24.4759L30.8401 21.9893C31.2125 21.4312 31.7169 20.9736 32.3085 20.6571C32.9001 20.3407 33.5607 20.1752 34.2317 20.1753H43.3791C44.235 20.1751 45.0693 20.4443 45.7636 20.9447C46.458 21.4452 46.9772 22.1515 47.2476 22.9636L48.3564 26.2899M51.4137 26.2899H24.9171" stroke="#157D18" stroke-width="4.07641" stroke-linecap="round" stroke-linejoin="round"/>
<path d="M48.3564 26.29L47.0927 46.4805C47.0506 47.1463 47.0092 47.7693 46.9684 48.3495M17.7834 26.29L19.0165 46.4621C19.3304 51.3823 19.4894 53.8404 20.7979 55.6116C21.444 56.486 22.2776 57.2238 23.2437 57.7782C25.2004 58.9013 27.8175 58.9013 33.0556 58.9013H38.1654M49.3755 54.8249C49.3755 53.2032 48.7313 51.6479 47.5846 50.5012C46.4379 49.3545 44.8826 48.7103 43.2609 48.7103C41.6392 48.7103 40.0839 49.3545 38.9372 50.5012C37.7905 51.6479 37.1463 53.2032 37.1463 54.8249C37.1463 56.4466 37.7905 58.0018 38.9372 59.1486C40.0839 60.2953 41.6392 60.9395 43.2609 60.9395C44.8826 60.9395 46.4379 60.2953 47.5846 59.1486C48.7313 58.0018 49.3755 56.4466 49.3755 54.8249Z" stroke="#157D18" stroke-width="4.07641" stroke-linecap="round" stroke-linejoin="round"/>
<path d="M38.4022 39.3305L32.3745 33.3029C31.414 32.3444 30.1124 31.8062 28.7554 31.8062C27.3984 31.8062 26.0969 32.3444 25.1363 33.3029C23.1413 35.2979 23.1413 38.5376 25.1363 40.5412L31.1639 46.5688C33.1674 48.5638 36.4072 48.5638 38.4022 46.5688C39.3606 45.6082 39.8989 44.3066 39.8989 42.9497C39.8989 41.5927 39.3606 40.2911 38.4022 39.3305ZM37.1915 40.5412C37.6165 40.9628 37.9223 41.4893 38.078 42.0672C38.2338 42.6452 38.2338 43.2541 38.0782 43.8321L32.9713 38.7337L29.3565 42.3486L26.3469 39.3305C26.0291 39.0151 25.7768 38.6399 25.6047 38.2265C25.4325 37.8132 25.3439 37.3698 25.3439 36.922C25.3439 36.4743 25.4325 36.0309 25.6047 35.6175C25.7768 35.2042 26.0291 34.829 26.3469 34.5135C26.6623 34.1957 27.0375 33.9434 27.4509 33.7713C27.8643 33.5992 28.3076 33.5105 28.7554 33.5105C29.2032 33.5105 29.6465 33.5992 30.0599 33.7713C30.4733 33.9434 30.8485 34.1957 31.1639 34.5135L37.1915 40.5412Z" fill="#157D18"/>
<path d="M20.7851 15.1455C19.0597 13.3524 16.7212 12.1161 14.0364 11.8696C9.32541 11.4371 5.06205 14.1414 3.27426 18.258L5.59268 19.2677C6.27482 17.6955 7.43585 16.3788 8.91028 15.5051C10.3847 14.6315 12.0973 14.2456 13.8039 14.4024C15.7795 14.5838 17.5159 15.4788 18.8162 16.7833L14.8121 20.1141L23.9301 20.9511L24.7672 11.833L20.7851 15.1455Z" fill="#157D18"/>
</svg>
