<svg width="47" height="47" viewBox="0 0 47 47" fill="none" xmlns="http://www.w3.org/2000/svg">
<circle cx="23.1992" cy="23.1992" r="23.1992" fill="#157D18"/>
<path d="M13.0928 18.5882H19.206C19.5766 18.5882 19.9415 18.4968 20.2683 18.322C20.5951 18.1472 20.8737 17.8945 21.0794 17.5862L21.9936 16.2127C22.1993 15.9044 22.4779 15.6516 22.8047 15.4769C23.1315 15.3021 23.4964 15.2106 23.867 15.2107H28.9197C29.3924 15.2106 29.8533 15.3593 30.2368 15.6357C30.6203 15.9121 30.9071 16.3023 31.0565 16.7508L31.669 18.5882M33.3577 18.5882H18.7219" stroke="white" stroke-width="2.25166" stroke-linecap="round" stroke-linejoin="round"/>
<path d="M31.6697 18.5881L30.9716 29.7406C30.9484 30.1084 30.9255 30.4525 30.903 30.773M14.7822 18.5881L15.4634 29.7305C15.6367 32.4482 15.7245 33.806 16.4473 34.7843C16.8042 35.2673 17.2647 35.6748 17.7983 35.9811C18.8791 36.6014 20.3247 36.6014 23.2181 36.6014H26.0405M32.2326 34.3497C32.2326 33.454 31.8767 32.5949 31.2433 31.9615C30.6099 31.3281 29.7509 30.9723 28.8551 30.9723C27.9593 30.9723 27.1002 31.3281 26.4668 31.9615C25.8334 32.5949 25.4776 33.454 25.4776 34.3497C25.4776 35.2455 25.8334 36.1046 26.4668 36.738C27.1002 37.3714 27.9593 37.7272 28.8551 37.7272C29.7509 37.7272 30.6099 37.3714 31.2433 36.738C31.8767 36.1046 32.2326 35.2455 32.2326 34.3497Z" stroke="white" stroke-width="2.25166" stroke-linecap="round" stroke-linejoin="round"/>
<path d="M26.1693 25.7914L22.8399 22.462C22.3093 21.9326 21.5904 21.6353 20.8408 21.6353C20.0913 21.6353 19.3723 21.9326 18.8417 22.462C17.7398 23.564 17.7398 25.3535 18.8417 26.4602L22.1712 29.7896C23.2779 30.8916 25.0674 30.8916 26.1693 29.7896C26.6988 29.259 26.9961 28.5401 26.9961 27.7905C26.9961 27.041 26.6988 26.322 26.1693 25.7914ZM25.5006 26.4602C25.7353 26.693 25.9043 26.9838 25.9903 27.3031C26.0763 27.6223 26.0763 27.9587 25.9904 28.2779L23.1695 25.4618L21.1728 27.4585L19.5105 25.7914C19.3349 25.6172 19.1956 25.41 19.1005 25.1816C19.0054 24.9533 18.9564 24.7084 18.9564 24.4611C18.9564 24.2137 19.0054 23.9689 19.1005 23.7405C19.1956 23.5122 19.3349 23.3049 19.5105 23.1307C19.6847 22.9552 19.8919 22.8158 20.1203 22.7207C20.3486 22.6256 20.5935 22.5767 20.8408 22.5767C21.0882 22.5767 21.3331 22.6256 21.5614 22.7207C21.7897 22.8158 21.997 22.9552 22.1712 23.1307L25.5006 26.4602Z" fill="white"/>
<path d="M16.4395 12.4322C15.4865 11.4418 14.1948 10.7589 12.7118 10.6228C10.1096 10.3839 7.75468 11.8776 6.76717 14.1515L8.04778 14.7092C8.42458 13.8408 9.06589 13.1135 9.88031 12.6309C10.6947 12.1484 11.6407 11.9352 12.5834 12.0218C13.6746 12.122 14.6337 12.6164 15.352 13.3369L13.1402 15.1767L18.1767 15.6391L18.6391 10.6026L16.4395 12.4322Z" fill="white"/>
</svg>
