<svg width="100" height="100" viewBox="0 0 100 100" fill="none" xmlns="http://www.w3.org/2000/svg">
<circle cx="50" cy="50" r="50" fill="#023022"/>
<path d="M49.5 48.0417V46.8125M59.3333 48.0417V46.8125M39.6666 48.0417V46.8125M28.5156 62.3688C24.9166 59.4901 24.9166 57.312 24.9166 48.0417C24.9166 38.7713 24.9166 34.1349 28.5156 31.2562C32.1195 28.375 37.9114 28.375 49.5 28.375C61.0885 28.375 66.8828 28.375 70.4818 31.2562C74.0808 34.1373 74.0833 38.7713 74.0833 48.0417C74.0833 57.312 74.0833 59.4901 70.4818 62.3688C66.8853 65.25 61.0885 65.25 49.5 65.25C43.3295 65.25 40.1583 69.5226 34.75 72.625V64.7288C32.0605 64.3281 30.0816 63.6226 28.5156 62.3688Z" stroke="white" stroke-width="3.6875" stroke-linecap="round" stroke-linejoin="round"/>
</svg>
