<svg width="20" height="21" viewBox="0 0 20 21" fill="none" xmlns="http://www.w3.org/2000/svg">
<path d="M4 18L1.7 20.3C1.38333 20.6167 1.02067 20.6873 0.612 20.512C0.204 20.3373 0 20.025 0 19.575V4C0 3.45 0.196 2.979 0.588 2.587C0.979333 2.19567 1.45 2 2 2H12.1C12.0333 2.33333 12 2.66667 12 3C12 3.33333 12.0333 3.66667 12.1 4H2V16H18V7.9C18.3833 7.81667 18.7417 7.704 19.075 7.562C19.4083 7.42067 19.7167 7.23333 20 7V16C20 16.55 19.8043 17.021 19.413 17.413C19.021 17.8043 18.55 18 18 18H4ZM11 14C11.2833 14 11.521 13.904 11.713 13.712C11.9043 13.5207 12 13.2833 12 13C12 12.7167 11.9043 12.479 11.713 12.287C11.521 12.0957 11.2833 12 11 12H5C4.71667 12 4.479 12.0957 4.287 12.287C4.09567 12.479 4 12.7167 4 13C4 13.2833 4.09567 13.5207 4.287 13.712C4.479 13.904 4.71667 14 5 14H11ZM15 11C15.2833 11 15.5207 10.904 15.712 10.712C15.904 10.5207 16 10.2833 16 10C16 9.71667 15.904 9.479 15.712 9.287C15.5207 9.09567 15.2833 9 15 9H5C4.71667 9 4.479 9.09567 4.287 9.287C4.09567 9.479 4 9.71667 4 10C4 10.2833 4.09567 10.5207 4.287 10.712C4.479 10.904 4.71667 11 5 11H15ZM13 6H5C4.71667 6 4.479 6.09567 4.287 6.287C4.09567 6.479 4 6.71667 4 7C4 7.28333 4.09567 7.521 4.287 7.713C4.479 7.90433 4.71667 8 5 8H16V7.9C15.3833 7.76667 14.8207 7.53733 14.312 7.212C13.804 6.88733 13.3667 6.48333 13 6ZM17 6C16.1667 6 15.4583 5.70833 14.875 5.125C14.2917 4.54167 14 3.83333 14 3C14 2.16667 14.2917 1.45833 14.875 0.875C15.4583 0.291667 16.1667 0 17 0C17.8333 0 18.5417 0.291667 19.125 0.875C19.7083 1.45833 20 2.16667 20 3C20 3.83333 19.7083 4.54167 19.125 5.125C18.5417 5.70833 17.8333 6 17 6Z" fill="#333333" fill-opacity="0.75"/>
</svg>
