<svg width="135" height="34" viewBox="0 0 135 34" fill="none" xmlns="http://www.w3.org/2000/svg">
<path d="M7.646 13.3233H13.3926C13.7409 13.3234 14.0839 13.2374 14.3911 13.0731C14.6983 12.9088 14.9602 12.6712 15.1536 12.3814L16.0129 11.0903C16.2062 10.8005 16.4681 10.5629 16.7753 10.3986C17.0825 10.2343 17.4255 10.1484 17.7739 10.1484H22.5235C22.968 10.1483 23.4011 10.2881 23.7616 10.548C24.1222 10.8078 24.3918 11.1746 24.5322 11.5962L25.1079 13.3233M26.6954 13.3233H12.9375" stroke="white" stroke-width="2.1166" stroke-linecap="round" stroke-linejoin="round"/>
<path d="M25.1079 13.3242L24.4517 23.8077C24.4298 24.1534 24.4083 24.4769 24.3872 24.7782M9.2334 13.3242L9.87367 23.7982C10.0366 26.3529 10.1192 27.6292 10.7986 28.5489C11.1341 29.0029 11.5669 29.386 12.0686 29.6739C13.0845 30.257 14.4434 30.257 17.1632 30.257H19.8164M25.637 28.1404C25.637 27.2983 25.3025 26.4908 24.7071 25.8954C24.1117 25.3 23.3041 24.9655 22.4621 24.9655C21.6201 24.9655 20.8125 25.3 20.2171 25.8954C19.6217 26.4908 19.2872 27.2983 19.2872 28.1404C19.2872 28.9824 19.6217 29.79 20.2171 30.3854C20.8125 30.9808 21.6201 31.3153 22.4621 31.3153C23.3041 31.3153 24.1117 30.9808 24.7071 30.3854C25.3025 29.79 25.637 28.9824 25.637 28.1404Z" stroke="white" stroke-width="2.1166" stroke-linecap="round" stroke-linejoin="round"/>
<path d="M19.9392 20.0963L16.8094 16.9666C16.3107 16.4689 15.6348 16.1895 14.9303 16.1895C14.2257 16.1895 13.5499 16.4689 13.0511 16.9666C12.0152 18.0025 12.0152 19.6847 13.0511 20.7249L16.1808 23.8547C17.2211 24.8905 18.9033 24.8905 19.9392 23.8547C20.4368 23.3559 20.7163 22.6801 20.7163 21.9755C20.7163 21.2709 20.4368 20.5951 19.9392 20.0963ZM19.3105 20.7249C19.5312 20.9438 19.69 21.2172 19.7708 21.5173C19.8517 21.8174 19.8517 22.1336 19.7709 22.4337L17.1193 19.7865L15.2423 21.6634L13.6797 20.0963C13.5147 19.9326 13.3837 19.7377 13.2943 19.5231C13.2049 19.3085 13.1589 19.0783 13.1589 18.8458C13.1589 18.6133 13.2049 18.3831 13.2943 18.1684C13.3837 17.9538 13.5147 17.759 13.6797 17.5952C13.8435 17.4302 14.0383 17.2992 14.2529 17.2098C14.4675 17.1204 14.6978 17.0744 14.9303 17.0744C15.1628 17.0744 15.393 17.1204 15.6076 17.2098C15.8222 17.2992 16.017 17.4302 16.1808 17.5952L19.3105 20.7249Z" fill="white"/>
<path d="M10.7924 7.53801C9.89648 6.60701 8.68227 5.96507 7.28826 5.8371C4.84216 5.61254 2.62849 7.01667 1.70022 9.15415L2.90401 9.67843C3.2582 8.86209 3.86104 8.17839 4.62661 7.72477C5.39218 7.27116 6.2814 7.07078 7.16753 7.1522C8.19331 7.24637 9.0949 7.71108 9.77008 8.38841L7.691 10.1179L12.4254 10.5525L12.86 5.81811L10.7924 7.53801Z" fill="white"/>
<path d="M35.9929 27.9805V14.3974H40.2714C41.2821 14.3974 42.1821 14.5289 42.9714 14.792C43.7606 15.0551 44.3837 15.4912 44.8406 16.1005C45.2975 16.7097 45.526 17.5405 45.526 18.5928C45.526 19.5897 45.2975 20.4135 44.8406 21.0643C44.3837 21.7151 43.7675 22.1997 42.9921 22.5182C42.2167 22.8366 41.3375 22.9959 40.3544 22.9959H38.4021V27.9805H35.9929ZM38.4021 21.0643H40.1675C42.1614 21.0643 43.1583 20.2405 43.1583 18.5928C43.1583 17.7343 42.8952 17.1459 42.369 16.8274C41.8567 16.4951 41.0952 16.3289 40.0844 16.3289H38.4021V21.0643ZM47.8735 27.9805V13.3174H50.262V17.0974L50.1789 19.0705C50.6082 18.6689 51.0858 18.3159 51.612 18.0112C52.1382 17.6928 52.7474 17.5335 53.4397 17.5335C54.5335 17.5335 55.3297 17.8866 55.8282 18.5928C56.3266 19.2989 56.5758 20.2959 56.5758 21.5835V27.9805H54.1874V21.8951C54.1874 21.0505 54.0628 20.4551 53.8135 20.1089C53.5643 19.7628 53.1558 19.5897 52.5882 19.5897C52.1451 19.5897 51.7505 19.7005 51.4043 19.922C51.072 20.1297 50.6912 20.4412 50.262 20.8566V27.9805H47.8735ZM61.9264 28.2297C61.0402 28.2297 60.3133 27.9528 59.7456 27.3989C59.1917 26.8451 58.9148 26.1251 58.9148 25.2389C58.9148 24.1451 59.3925 23.3005 60.3479 22.7051C61.3033 22.0959 62.8264 21.6805 64.9171 21.4589C64.9033 20.9189 64.7579 20.4551 64.481 20.0674C64.2179 19.6659 63.7402 19.4651 63.0479 19.4651C62.5494 19.4651 62.0579 19.562 61.5733 19.7559C61.1025 19.9497 60.6387 20.1851 60.1817 20.462L59.3094 18.8628C59.8771 18.5028 60.5141 18.1912 61.2202 17.9282C61.9402 17.6651 62.7017 17.5335 63.5048 17.5335C64.7787 17.5335 65.7271 17.9143 66.3502 18.6759C66.9871 19.4235 67.3056 20.5105 67.3056 21.9366V27.9805H65.3325L65.1664 26.8589H65.0833C64.6264 27.2466 64.1348 27.572 63.6087 27.8351C63.0964 28.0982 62.5356 28.2297 61.9264 28.2297ZM62.6948 26.3605C63.1102 26.3605 63.4841 26.2635 63.8164 26.0697C64.1625 25.862 64.5294 25.5851 64.9171 25.2389V22.9543C63.5325 23.1343 62.5702 23.4043 62.0302 23.7643C61.4902 24.1105 61.2202 24.5397 61.2202 25.052C61.2202 25.5089 61.3587 25.8412 61.6356 26.0489C61.9125 26.2566 62.2656 26.3605 62.6948 26.3605ZM70.164 27.9805V17.7828H72.137L72.3032 19.5897H72.3863C72.7463 18.9251 73.1824 18.4197 73.6947 18.0735C74.207 17.7135 74.7332 17.5335 75.2732 17.5335C75.7578 17.5335 76.1455 17.6028 76.4363 17.7412L76.0209 19.8182C75.8409 19.7628 75.6747 19.7212 75.5224 19.6935C75.3701 19.6659 75.1832 19.652 74.9616 19.652C74.5601 19.652 74.1378 19.8112 73.6947 20.1297C73.2516 20.4343 72.8709 20.9743 72.5524 21.7497V27.9805H70.164ZM77.9119 27.9805V17.7828H79.8849L80.0511 19.1743H80.1342C80.5634 18.7174 81.0272 18.3297 81.5257 18.0112C82.038 17.6928 82.6126 17.5335 83.2495 17.5335C83.9972 17.5335 84.5926 17.6997 85.0357 18.032C85.4926 18.3505 85.8388 18.7935 86.0742 19.3612C86.5588 18.8351 87.0642 18.3989 87.5903 18.0528C88.1303 17.7066 88.7188 17.5335 89.3557 17.5335C90.4357 17.5335 91.2319 17.8866 91.7442 18.5928C92.2565 19.2989 92.5126 20.2959 92.5126 21.5835V27.9805H90.1034V21.8951C90.1034 21.0505 89.9719 20.4551 89.7088 20.1089C89.4595 19.7628 89.0719 19.5897 88.5457 19.5897C87.9088 19.5897 87.1957 20.012 86.4065 20.8566V27.9805H84.018V21.8951C84.018 21.0505 83.8865 20.4551 83.6234 20.1089C83.3742 19.7628 82.9795 19.5897 82.4395 19.5897C81.8026 19.5897 81.0895 20.012 80.3003 20.8566V27.9805H77.9119ZM97.8871 28.2297C97.001 28.2297 96.2741 27.9528 95.7064 27.3989C95.1525 26.8451 94.8756 26.1251 94.8756 25.2389C94.8756 24.1451 95.3533 23.3005 96.3087 22.7051C97.2641 22.0959 98.7871 21.6805 100.878 21.4589C100.864 20.9189 100.719 20.4551 100.442 20.0674C100.179 19.6659 99.701 19.4651 99.0087 19.4651C98.5102 19.4651 98.0187 19.562 97.5341 19.7559C97.0633 19.9497 96.5995 20.1851 96.1425 20.462L95.2702 18.8628C95.8379 18.5028 96.4748 18.1912 97.181 17.9282C97.901 17.6651 98.6625 17.5335 99.4656 17.5335C100.739 17.5335 101.688 17.9143 102.311 18.6759C102.948 19.4235 103.266 20.5105 103.266 21.9366V27.9805H101.293L101.127 26.8589H101.044C100.587 27.2466 100.096 27.572 99.5695 27.8351C99.0571 28.0982 98.4964 28.2297 97.8871 28.2297ZM98.6556 26.3605C99.071 26.3605 99.4448 26.2635 99.7771 26.0697C100.123 25.862 100.49 25.5851 100.878 25.2389V22.9543C99.4933 23.1343 98.531 23.4043 97.991 23.7643C97.451 24.1105 97.181 24.5397 97.181 25.052C97.181 25.5089 97.3195 25.8412 97.5964 26.0489C97.8733 26.2566 98.2264 26.3605 98.6556 26.3605ZM106.332 27.9805V14.3974H110.673C111.615 14.3974 112.446 14.5012 113.166 14.7089C113.899 14.9166 114.474 15.2697 114.889 15.7682C115.319 16.2528 115.533 16.9105 115.533 17.7412C115.533 18.3782 115.367 18.9805 115.035 19.5482C114.702 20.102 114.239 20.4828 113.643 20.6905V20.7735C114.391 20.9397 115.007 21.2928 115.492 21.8328C115.99 22.3589 116.239 23.0789 116.239 23.9928C116.239 24.8928 116.011 25.6405 115.554 26.2359C115.111 26.8312 114.495 27.2743 113.706 27.5651C112.916 27.842 112.023 27.9805 111.026 27.9805H106.332ZM108.742 20.0051H110.466C111.407 20.0051 112.092 19.832 112.522 19.4859C112.951 19.1397 113.166 18.6759 113.166 18.0943C113.166 17.4297 112.944 16.9589 112.501 16.682C112.058 16.4051 111.393 16.2666 110.507 16.2666H108.742V20.0051ZM108.742 26.1112H110.777C111.774 26.1112 112.542 25.9312 113.082 25.5712C113.622 25.1974 113.892 24.6297 113.892 23.8682C113.892 23.1482 113.629 22.6289 113.103 22.3105C112.577 21.9782 111.802 21.812 110.777 21.812H108.742V26.1112ZM118.517 27.9805V17.7828H120.906V27.9805H118.517ZM119.722 15.9966C119.293 15.9966 118.947 15.872 118.683 15.6228C118.42 15.3735 118.289 15.0412 118.289 14.6259C118.289 14.2243 118.42 13.8989 118.683 13.6497C118.947 13.4005 119.293 13.2759 119.722 13.2759C120.151 13.2759 120.497 13.4005 120.76 13.6497C121.023 13.8989 121.155 14.2243 121.155 14.6259C121.155 15.0412 121.023 15.3735 120.76 15.6228C120.497 15.872 120.151 15.9966 119.722 15.9966ZM123.953 27.9805V17.7828H125.926L126.092 19.1535H126.175C126.632 18.7105 127.131 18.3297 127.671 18.0112C128.211 17.6928 128.827 17.5335 129.519 17.5335C130.613 17.5335 131.409 17.8866 131.908 18.5928C132.406 19.2989 132.655 20.2959 132.655 21.5835V27.9805H130.267V21.8951C130.267 21.0505 130.142 20.4551 129.893 20.1089C129.644 19.7628 129.235 19.5897 128.668 19.5897C128.225 19.5897 127.83 19.7005 127.484 19.922C127.151 20.1297 126.771 20.4412 126.341 20.8566V27.9805H123.953Z" fill="white"/>
</svg>
