<svg width="297" height="66" viewBox="0 0 297 66" fill="none" xmlns="http://www.w3.org/2000/svg">
<path d="M14.7261 26.2899H25.7935C26.4645 26.29 27.1251 26.1245 27.7167 25.808C28.3083 25.4916 28.8127 25.034 29.1851 24.4759L30.8401 21.9893C31.2125 21.4312 31.7169 20.9736 32.3085 20.6571C32.9001 20.3407 33.5607 20.1752 34.2317 20.1753H43.3791C44.235 20.1751 45.0693 20.4443 45.7636 20.9447C46.458 21.4452 46.9772 22.1515 47.2476 22.9636L48.3564 26.2899M51.4137 26.2899H24.9171" stroke="#157D18" stroke-width="4.07641" stroke-linecap="round" stroke-linejoin="round"/>
<path d="M48.3564 26.29L47.0927 46.4805C47.0506 47.1463 47.0092 47.7693 46.9684 48.3495M17.7834 26.29L19.0165 46.4621C19.3304 51.3823 19.4894 53.8404 20.7979 55.6116C21.444 56.486 22.2776 57.2238 23.2437 57.7782C25.2004 58.9013 27.8175 58.9013 33.0556 58.9013H38.1654M49.3755 54.8249C49.3755 53.2032 48.7313 51.6479 47.5846 50.5012C46.4379 49.3545 44.8826 48.7103 43.2609 48.7103C41.6392 48.7103 40.0839 49.3545 38.9372 50.5012C37.7905 51.6479 37.1463 53.2032 37.1463 54.8249C37.1463 56.4466 37.7905 58.0018 38.9372 59.1486C40.0839 60.2953 41.6392 60.9395 43.2609 60.9395C44.8826 60.9395 46.4379 60.2953 47.5846 59.1486C48.7313 58.0018 49.3755 56.4466 49.3755 54.8249Z" stroke="#157D18" stroke-width="4.07641" stroke-linecap="round" stroke-linejoin="round"/>
<path d="M38.4022 39.3305L32.3745 33.3029C31.414 32.3444 30.1124 31.8062 28.7554 31.8062C27.3984 31.8062 26.0969 32.3444 25.1363 33.3029C23.1413 35.2979 23.1413 38.5376 25.1363 40.5412L31.1639 46.5688C33.1674 48.5638 36.4072 48.5638 38.4022 46.5688C39.3606 45.6082 39.8989 44.3066 39.8989 42.9497C39.8989 41.5927 39.3606 40.2911 38.4022 39.3305ZM37.1915 40.5412C37.6165 40.9628 37.9223 41.4893 38.078 42.0672C38.2338 42.6452 38.2338 43.2541 38.0782 43.8321L32.9713 38.7337L29.3565 42.3486L26.3469 39.3305C26.0291 39.0151 25.7768 38.6399 25.6047 38.2265C25.4325 37.8132 25.3439 37.3698 25.3439 36.922C25.3439 36.4743 25.4325 36.0309 25.6047 35.6175C25.7768 35.2042 26.0291 34.829 26.3469 34.5135C26.6623 34.1957 27.0375 33.9434 27.4509 33.7713C27.8643 33.5992 28.3076 33.5105 28.7554 33.5105C29.2032 33.5105 29.6465 33.5992 30.0599 33.7713C30.4733 33.9434 30.8485 34.1957 31.1639 34.5135L37.1915 40.5412Z" fill="#157D18"/>
<path d="M20.7851 15.1455C19.0597 13.3524 16.7212 12.1161 14.0364 11.8696C9.32541 11.4371 5.06205 14.1414 3.27426 18.258L5.59268 19.2677C6.27482 17.6955 7.43585 16.3788 8.91028 15.5051C10.3847 14.6315 12.0973 14.2456 13.8039 14.4024C15.7795 14.5838 17.5159 15.4788 18.8162 16.7833L14.8121 20.1141L23.9301 20.9511L24.7672 11.833L20.7851 15.1455Z" fill="#157D18"/>
<path d="M69.3198 54V27.84H77.5598C79.5064 27.84 81.2398 28.0933 82.7598 28.6C84.2798 29.1067 85.4798 29.9467 86.3598 31.12C87.2398 32.2933 87.6798 33.8933 87.6798 35.92C87.6798 37.84 87.2398 39.4267 86.3598 40.68C85.4798 41.9333 84.2931 42.8667 82.7998 43.48C81.3064 44.0933 79.6131 44.4 77.7198 44.4H73.9598V54H69.3198ZM73.9598 40.68H77.3598C81.1998 40.68 83.1198 39.0933 83.1198 35.92C83.1198 34.2667 82.6131 33.1333 81.5998 32.52C80.6131 31.88 79.1464 31.56 77.1998 31.56H73.9598V40.68ZM92.201 54V25.76H96.801V33.04L96.641 36.84C97.4677 36.0667 98.3877 35.3867 99.401 34.8C100.414 34.1867 101.588 33.88 102.921 33.88C105.028 33.88 106.561 34.56 107.521 35.92C108.481 37.28 108.961 39.2 108.961 41.68V54H104.361V42.28C104.361 40.6533 104.121 39.5067 103.641 38.84C103.161 38.1733 102.374 37.84 101.281 37.84C100.428 37.84 99.6677 38.0533 99.001 38.48C98.361 38.88 97.6277 39.48 96.801 40.28V54H92.201ZM119.266 54.48C117.559 54.48 116.159 53.9467 115.066 52.88C113.999 51.8133 113.466 50.4267 113.466 48.72C113.466 46.6133 114.386 44.9867 116.226 43.84C118.066 42.6667 120.999 41.8667 125.026 41.44C124.999 40.4 124.719 39.5067 124.186 38.76C123.679 37.9867 122.759 37.6 121.426 37.6C120.466 37.6 119.519 37.7867 118.586 38.16C117.679 38.5333 116.786 38.9867 115.906 39.52L114.226 36.44C115.319 35.7467 116.546 35.1467 117.906 34.64C119.292 34.1333 120.759 33.88 122.306 33.88C124.759 33.88 126.586 34.6133 127.786 36.08C129.012 37.52 129.626 39.6133 129.626 42.36V54H125.826L125.506 51.84H125.346C124.466 52.5867 123.519 53.2133 122.506 53.72C121.519 54.2267 120.439 54.48 119.266 54.48ZM120.746 50.88C121.546 50.88 122.266 50.6933 122.906 50.32C123.572 49.92 124.279 49.3867 125.026 48.72V44.32C122.359 44.6667 120.506 45.1867 119.466 45.88C118.426 46.5467 117.906 47.3733 117.906 48.36C117.906 49.24 118.172 49.88 118.706 50.28C119.239 50.68 119.919 50.88 120.746 50.88ZM135.131 54V34.36H138.931L139.251 37.84H139.411C140.104 36.56 140.944 35.5867 141.931 34.92C142.917 34.2267 143.931 33.88 144.971 33.88C145.904 33.88 146.651 34.0133 147.211 34.28L146.411 38.28C146.064 38.1733 145.744 38.0933 145.451 38.04C145.157 37.9867 144.797 37.96 144.371 37.96C143.597 37.96 142.784 38.2667 141.931 38.88C141.077 39.4667 140.344 40.5067 139.731 42V54H135.131ZM150.053 54V34.36H153.853L154.173 37.04H154.333C155.159 36.16 156.053 35.4133 157.013 34.8C157.999 34.1867 159.106 33.88 160.333 33.88C161.773 33.88 162.919 34.2 163.773 34.84C164.653 35.4533 165.319 36.3067 165.773 37.4C166.706 36.3867 167.679 35.5467 168.693 34.88C169.733 34.2133 170.866 33.88 172.093 33.88C174.173 33.88 175.706 34.56 176.693 35.92C177.679 37.28 178.173 39.2 178.173 41.68V54H173.533V42.28C173.533 40.6533 173.279 39.5067 172.773 38.84C172.293 38.1733 171.546 37.84 170.533 37.84C169.306 37.84 167.933 38.6533 166.413 40.28V54H161.813V42.28C161.813 40.6533 161.559 39.5067 161.053 38.84C160.573 38.1733 159.813 37.84 158.773 37.84C157.546 37.84 156.173 38.6533 154.653 40.28V54H150.053ZM188.524 54.48C186.817 54.48 185.417 53.9467 184.324 52.88C183.257 51.8133 182.724 50.4267 182.724 48.72C182.724 46.6133 183.644 44.9867 185.484 43.84C187.324 42.6667 190.257 41.8667 194.284 41.44C194.257 40.4 193.977 39.5067 193.444 38.76C192.937 37.9867 192.017 37.6 190.684 37.6C189.724 37.6 188.777 37.7867 187.844 38.16C186.937 38.5333 186.044 38.9867 185.164 39.52L183.484 36.44C184.577 35.7467 185.804 35.1467 187.164 34.64C188.55 34.1333 190.017 33.88 191.564 33.88C194.017 33.88 195.844 34.6133 197.044 36.08C198.27 37.52 198.884 39.6133 198.884 42.36V54H195.084L194.764 51.84H194.604C193.724 52.5867 192.777 53.2133 191.764 53.72C190.777 54.2267 189.697 54.48 188.524 54.48ZM190.004 50.88C190.804 50.88 191.524 50.6933 192.164 50.32C192.83 49.92 193.537 49.3867 194.284 48.72V44.32C191.617 44.6667 189.764 45.1867 188.724 45.88C187.684 46.5467 187.164 47.3733 187.164 48.36C187.164 49.24 187.43 49.88 187.964 50.28C188.497 50.68 189.177 50.88 190.004 50.88ZM204.789 54V27.84H213.149C214.962 27.84 216.562 28.04 217.949 28.44C219.362 28.84 220.469 29.52 221.269 30.48C222.095 31.4133 222.509 32.68 222.509 34.28C222.509 35.5067 222.189 36.6667 221.549 37.76C220.909 38.8267 220.015 39.56 218.869 39.96V40.12C220.309 40.44 221.495 41.12 222.429 42.16C223.389 43.1733 223.869 44.56 223.869 46.32C223.869 48.0533 223.429 49.4933 222.549 50.64C221.695 51.7867 220.509 52.64 218.989 53.2C217.469 53.7333 215.749 54 213.829 54H204.789ZM209.429 38.64H212.749C214.562 38.64 215.882 38.3067 216.709 37.64C217.535 36.9733 217.949 36.08 217.949 34.96C217.949 33.68 217.522 32.7733 216.669 32.24C215.815 31.7067 214.535 31.44 212.829 31.44H209.429V38.64ZM209.429 50.4H213.349C215.269 50.4 216.749 50.0533 217.789 49.36C218.829 48.64 219.349 47.5467 219.349 46.08C219.349 44.6933 218.842 43.6933 217.829 43.08C216.815 42.44 215.322 42.12 213.349 42.12H209.429V50.4ZM228.256 54V34.36H232.856V54H228.256ZM230.576 30.92C229.749 30.92 229.082 30.68 228.576 30.2C228.069 29.72 227.816 29.08 227.816 28.28C227.816 27.5067 228.069 26.88 228.576 26.4C229.082 25.92 229.749 25.68 230.576 25.68C231.402 25.68 232.069 25.92 232.576 26.4C233.082 26.88 233.336 27.5067 233.336 28.28C233.336 29.08 233.082 29.72 232.576 30.2C232.069 30.68 231.402 30.92 230.576 30.92ZM238.724 54V34.36H242.524L242.844 37H243.004C243.884 36.1467 244.844 35.4133 245.884 34.8C246.924 34.1867 248.111 33.88 249.444 33.88C251.551 33.88 253.084 34.56 254.044 35.92C255.004 37.28 255.484 39.2 255.484 41.68V54H250.884V42.28C250.884 40.6533 250.644 39.5067 250.164 38.84C249.684 38.1733 248.898 37.84 247.804 37.84C246.951 37.84 246.191 38.0533 245.524 38.48C244.884 38.88 244.151 39.48 243.324 40.28V54H238.724Z" fill="#157D18"/>
</svg>
