<svg width="100" height="100" viewBox="0 0 100 100" fill="none" xmlns="http://www.w3.org/2000/svg">
<g filter="url(#filter0_d_1202_7164)">
<path d="M48 83C67.33 83 83 67.33 83 48C83 28.67 67.33 13 48 13C28.67 13 13 28.67 13 48C13 67.33 28.67 83 48 83Z" fill="#251F23" fill-opacity="0.25" shape-rendering="crispEdges"/>
<path d="M82.5 48C82.5 67.0538 67.0538 82.5 48 82.5C28.9462 82.5 13.5 67.0538 13.5 48C13.5 28.9462 28.9462 13.5 48 13.5C67.0538 13.5 82.5 28.9462 82.5 48Z" stroke="white" stroke-opacity="0.75" shape-rendering="crispEdges"/>
</g>
<path d="M48 74C62.3594 74 74 62.3594 74 48C74 33.6406 62.3594 22 48 22C33.6406 22 22 33.6406 22 48C22 62.3594 33.6406 74 48 74Z" fill="#251F23"/>
<path d="M39.52 62V59.32C41.8933 57.0267 43.9333 54.9867 45.64 53.2C47.3733 51.3867 48.7067 49.7467 49.64 48.28C50.5733 46.7867 51.04 45.4 51.04 44.12C51.04 42.7867 50.68 41.72 49.96 40.92C49.24 40.12 48.2 39.72 46.84 39.72C45.8533 39.72 44.9467 40 44.12 40.56C43.32 41.12 42.5733 41.7867 41.88 42.56L39.32 40C40.4933 38.7467 41.7067 37.7867 42.96 37.12C44.2133 36.4267 45.7067 36.08 47.44 36.08C49.8933 36.08 51.84 36.7867 53.28 38.2C54.7467 39.6133 55.48 41.5067 55.48 43.88C55.48 45.3733 55.0533 46.9067 54.2 48.48C53.3733 50.0267 52.2533 51.6133 50.84 53.24C49.4533 54.8667 47.92 56.5733 46.24 58.36C46.9067 58.3067 47.6267 58.2533 48.4 58.2C49.1733 58.12 49.8667 58.08 50.48 58.08H56.72V62H39.52Z" fill="white"/>
<defs>
<filter id="filter0_d_1202_7164" x="0" y="0" width="100" height="100" filterUnits="userSpaceOnUse" color-interpolation-filters="sRGB">
<feFlood flood-opacity="0" result="BackgroundImageFix"/>
<feColorMatrix in="SourceAlpha" type="matrix" values="0 0 0 0 0 0 0 0 0 0 0 0 0 0 0 0 0 0 127 0" result="hardAlpha"/>
<feOffset dx="2" dy="2"/>
<feGaussianBlur stdDeviation="7.5"/>
<feComposite in2="hardAlpha" operator="out"/>
<feColorMatrix type="matrix" values="0 0 0 0 0 0 0 0 0 0 0 0 0 0 0 0 0 0 0.28 0"/>
<feBlend mode="normal" in2="BackgroundImageFix" result="effect1_dropShadow_1202_7164"/>
<feBlend mode="normal" in="SourceGraphic" in2="effect1_dropShadow_1202_7164" result="shape"/>
</filter>
</defs>
</svg>
