<svg width="100" height="100" viewBox="0 0 100 100" fill="none" xmlns="http://www.w3.org/2000/svg">
<g filter="url(#filter0_d_1203_7204)">
<path d="M48 83C67.33 83 83 67.33 83 48C83 28.67 67.33 13 48 13C28.67 13 13 28.67 13 48C13 67.33 28.67 83 48 83Z" fill="#A80A7B" fill-opacity="0.25" shape-rendering="crispEdges"/>
<path d="M82.5 48C82.5 67.0538 67.0538 82.5 48 82.5C28.9462 82.5 13.5 67.0538 13.5 48C13.5 28.9462 28.9462 13.5 48 13.5C67.0538 13.5 82.5 28.9462 82.5 48Z" stroke="white" stroke-opacity="0.75" shape-rendering="crispEdges"/>
</g>
<path d="M48 74C62.3594 74 74 62.3594 74 48C74 33.6406 62.3594 22 48 22C33.6406 22 22 33.6406 22 48C22 62.3594 33.6406 74 48 74Z" fill="#A80A7B"/>
<path d="M47.6 62.48C45.5467 62.48 43.8133 62.1333 42.4 61.44C41.0133 60.72 39.8667 59.8667 38.96 58.88L41.16 55.92C41.9333 56.6933 42.8133 57.36 43.8 57.92C44.7867 58.4533 45.92 58.72 47.2 58.72C48.5867 58.72 49.7067 58.3867 50.56 57.72C51.44 57.0267 51.88 56.08 51.88 54.88C51.88 54 51.6533 53.24 51.2 52.6C50.7733 51.9333 50.0133 51.4267 48.92 51.08C47.8533 50.7333 46.3467 50.56 44.4 50.56V47.2C46.9067 47.2 48.64 46.8133 49.6 46.04C50.56 45.2667 51.04 44.2933 51.04 43.12C51.04 42.0533 50.7067 41.2267 50.04 40.64C49.3733 40.0267 48.4533 39.72 47.28 39.72C46.2933 39.72 45.3867 39.9467 44.56 40.4C43.7333 40.8267 42.9333 41.4 42.16 42.12L39.8 39.28C40.8933 38.32 42.0533 37.5467 43.28 36.96C44.5333 36.3733 45.92 36.08 47.44 36.08C49.8933 36.08 51.88 36.6667 53.4 37.84C54.92 38.9867 55.68 40.64 55.68 42.8C55.68 44.2133 55.28 45.4133 54.48 46.4C53.7067 47.36 52.6267 48.1067 51.24 48.64V48.8C52.7333 49.2 53.9867 49.9333 55 51C56.0133 52.0667 56.52 53.44 56.52 55.12C56.52 56.6667 56.1067 57.9867 55.28 59.08C54.48 60.1733 53.4 61.0133 52.04 61.6C50.7067 62.1867 49.2267 62.48 47.6 62.48Z" fill="white"/>
<defs>
<filter id="filter0_d_1203_7204" x="0" y="0" width="100" height="100" filterUnits="userSpaceOnUse" color-interpolation-filters="sRGB">
<feFlood flood-opacity="0" result="BackgroundImageFix"/>
<feColorMatrix in="SourceAlpha" type="matrix" values="0 0 0 0 0 0 0 0 0 0 0 0 0 0 0 0 0 0 127 0" result="hardAlpha"/>
<feOffset dx="2" dy="2"/>
<feGaussianBlur stdDeviation="7.5"/>
<feComposite in2="hardAlpha" operator="out"/>
<feColorMatrix type="matrix" values="0 0 0 0 0 0 0 0 0 0 0 0 0 0 0 0 0 0 0.28 0"/>
<feBlend mode="normal" in2="BackgroundImageFix" result="effect1_dropShadow_1203_7204"/>
<feBlend mode="normal" in="SourceGraphic" in2="effect1_dropShadow_1203_7204" result="shape"/>
</filter>
</defs>
</svg>
